<svg width="40" height="40" viewBox="0 0 40 40" fill="none" xmlns="http://www.w3.org/2000/svg">
<path d="M34.1231 5.87685C26.2888 -1.95762 13.7139 -1.96028 5.87685 5.87685C-1.95762 13.7112 -1.96028 26.2861 5.87685 34.1231C13.7112 41.9576 26.2861 41.9603 34.1231 34.1231C41.9576 26.2888 41.9603 13.7139 34.1231 5.87685ZM20 37.6528C10.2662 37.6528 2.34723 29.7338 2.34723 20C2.34723 10.2662 10.2662 2.34723 20 2.34723C29.7338 2.34723 37.6528 10.2662 37.6528 20C37.6528 29.7338 29.7338 37.6528 20 37.6528Z" fill="#09B33B"/>
<path d="M25.753 13.5134C25.269 13.0839 24.5285 13.128 24.099 13.612C23.6694 14.096 23.7136 14.8366 24.1976 15.2661C25.5508 16.467 26.3269 18.1925 26.3269 20.0001C26.3269 23.4888 23.4887 26.327 20 26.327C16.5113 26.327 13.6731 23.4888 13.6731 20.0001C13.6731 18.1746 14.4621 16.4378 15.8377 15.235C16.3248 14.8091 16.3745 14.0689 15.9485 13.5817C15.5225 13.0946 14.7824 13.045 14.2952 13.471C12.4106 15.1188 11.3298 17.4985 11.3298 20.0001C11.3298 24.7809 15.2191 28.6702 19.9999 28.6702C24.7807 28.6702 28.6701 24.7809 28.6701 20.0001C28.6702 17.5229 27.6069 15.1587 25.753 13.5134Z" fill="#09B33B"/>
<path d="M20 18.0473C20.6471 18.0473 21.1716 17.5227 21.1716 16.8756V10.6269C21.1716 9.97979 20.6471 9.45521 20 9.45521C19.3529 9.45521 18.8284 9.97979 18.8284 10.6269V16.8756C18.8284 17.5228 19.3529 18.0473 20 18.0473Z" fill="#09B33B"/>
</svg>
