<svg width="40" height="40" viewBox="0 0 40 40" fill="none" xmlns="http://www.w3.org/2000/svg">
<path d="M36.4844 0H3.51562C1.57711 0 0 1.57711 0 3.51562V31.7969C0 33.7354 1.57711 35.3125 3.51562 35.3125H14.0625V37.6562H10.5469C9.89969 37.6562 9.375 38.1809 9.375 38.8281C9.375 39.4753 9.89969 40 10.5469 40H29.375C30.0222 40 30.5469 39.4753 30.5469 38.8281C30.5469 38.1809 30.0222 37.6562 29.375 37.6562H25.8594V35.3125H36.4844C38.4229 35.3125 40 33.7354 40 31.7969V3.51562C40 1.57711 38.4229 0 36.4844 0ZM23.5156 37.6562H16.4062V35.3125H23.5156V37.6562ZM37.6562 31.7969C37.6562 32.443 37.1305 32.9688 36.4844 32.9688H3.51562C2.86945 32.9688 2.34375 32.443 2.34375 31.7969V30.625H37.6562V31.7969ZM37.6562 28.2812H2.34375V3.51562C2.34375 2.86945 2.86945 2.34375 3.51562 2.34375H36.4844C37.1305 2.34375 37.6562 2.86945 37.6562 3.51562V28.2812Z" fill="#09B33B"/>
<path d="M20 9.375C19.3528 9.375 18.8281 9.89969 18.8281 10.5469V15.3906C18.8281 16.0378 19.3528 16.5625 20 16.5625C20.6472 16.5625 21.1719 16.0378 21.1719 15.3906V10.5469C21.1719 9.89969 20.6472 9.375 20 9.375Z" fill="#09B33B"/>
<path d="M20 4.6875C14.1821 4.6875 9.375 9.5443 9.375 15.3906C9.375 21.2062 14.1413 25.9375 20 25.9375C25.8155 25.9375 30.5469 21.2062 30.5469 15.3906C30.5469 9.57695 25.8478 4.6875 20 4.6875ZM20 23.5938C15.4337 23.5938 11.7188 19.9138 11.7188 15.3906C11.7188 10.8594 15.5111 7.03125 20 7.03125C24.5232 7.03125 28.2031 10.7812 28.2031 15.3906C28.2031 19.9138 24.5232 23.5938 20 23.5938Z" fill="#09B33B"/>
<path d="M19.9884 18.9062C19.3357 18.9062 18.8048 19.4372 18.8048 20.0898C18.8048 20.7425 19.3358 21.2734 19.9884 21.2734C20.641 21.2734 21.172 20.7425 21.172 20.0898C21.172 19.4372 20.641 18.9062 19.9884 18.9062Z" fill="#09B33B"/>
</svg>
