<svg width="40" height="40" viewBox="0 0 40 40" fill="none" xmlns="http://www.w3.org/2000/svg">
<path d="M20.6164 8.4125C20.2703 8.19844 19.8391 8.17969 19.4758 8.36094L13.8398 11.1789H8.23281C7.58516 11.1789 7.06094 11.7039 7.06094 12.3508V18.2352C7.06094 18.882 7.58516 19.407 8.23281 19.407H13.8398L19.4758 22.225C19.6414 22.3078 19.8211 22.3484 20 22.3484C20.2141 22.3484 20.4281 22.2898 20.6164 22.1734C20.9617 21.9602 21.1719 21.5828 21.1719 21.1766V9.40938C21.1719 9.00313 20.9617 8.62578 20.6164 8.4125ZM9.40469 13.5227H12.9445V17.0633H9.40469V13.5227ZM18.8281 19.2805L15.2883 17.5109V13.0758L18.8281 11.3055V19.2805Z" fill="#09B33B"/>
<path d="M32.5962 11.5224C32.1386 11.0648 31.3966 11.0648 30.9389 11.5224L28.8256 13.6357L26.7123 11.5224C26.2548 11.0648 25.5127 11.0648 25.0551 11.5224C24.5974 11.9801 24.5974 12.722 25.0551 13.1797L27.1684 15.293L25.0551 17.4063C24.5974 17.8639 24.5974 18.6059 25.0551 19.0635C25.2839 19.2923 25.5838 19.4068 25.8837 19.4068C26.1835 19.4068 26.4835 19.2924 26.7123 19.0635L28.8255 16.9502L30.9388 19.0635C31.1677 19.2923 31.4676 19.4068 31.7674 19.4068C32.0673 19.4068 32.3673 19.2924 32.596 19.0635C33.0537 18.6059 33.0537 17.8639 32.596 17.4063L30.4827 15.293L32.596 13.1797C33.0538 12.722 33.0538 11.9801 32.5962 11.5224Z" fill="#09B33B"/>
<path d="M37.1094 0H2.89062C1.29672 0 0 1.29672 0 2.89062V32.4023C0 33.9963 1.29672 35.293 2.89062 35.293H14.1211V37.6562H8.23242C7.58523 37.6562 7.06055 38.1809 7.06055 38.8281C7.06055 39.4753 7.58523 40 8.23242 40H31.7676C32.4148 40 32.9395 39.4753 32.9395 38.8281C32.9395 38.1809 32.4148 37.6562 31.7676 37.6562H25.8789V35.293H37.1094C38.7033 35.293 40 33.9963 40 32.4023V2.89062C40 1.29672 38.7033 0 37.1094 0ZM2.34375 2.89062C2.34375 2.58906 2.58906 2.34375 2.89062 2.34375H37.1094C37.4109 2.34375 37.6562 2.58906 37.6562 2.89062V28.2422H2.34375V2.89062ZM23.5352 37.6562H16.4648V35.293H23.5352V37.6562ZM37.6562 32.4023C37.6562 32.7039 37.4109 32.9492 37.1094 32.9492H2.89062C2.58906 32.9492 2.34375 32.7039 2.34375 32.4023V30.5859H37.6562V32.4023Z" fill="#09B33B"/>
</svg>
