<svg width="40" height="40" viewBox="0 0 40 40" fill="none" xmlns="http://www.w3.org/2000/svg">
<path d="M38.5245 0H1.47547C1.08415 0 0.70886 0.155451 0.432155 0.432155C0.155451 0.70886 0 1.08415 0 1.47547V29.775C0 30.1663 0.155451 30.5416 0.432155 30.8183C0.70886 31.095 1.08415 31.2505 1.47547 31.2505H15.8384V37.0491H2.78864C2.39732 37.0491 2.02203 37.2045 1.74532 37.4812C1.46862 37.7579 1.31317 38.1332 1.31317 38.5245C1.31317 38.9159 1.46862 39.2911 1.74532 39.5678C2.02203 39.8446 2.39732 40 2.78864 40H37.2114C37.6027 40 37.978 39.8446 38.2547 39.5678C38.5314 39.2911 38.6868 38.9159 38.6868 38.5245C38.6868 38.1332 38.5314 37.7579 38.2547 37.4812C37.978 37.2045 37.6027 37.0491 37.2114 37.0491H24.9864V31.2505H38.5245C38.9158 31.2505 39.2911 31.095 39.5678 30.8183C39.8445 30.5416 40 30.1663 40 29.775V1.47547C40 1.08415 39.8445 0.70886 39.5678 0.432155C39.2911 0.155451 38.9158 0 38.5245 0ZM22.0354 37.0343H18.7894V31.2505H22.0354V37.0343ZM37.0491 28.2848H2.95094V2.95094H37.0491V28.2848Z" fill="#09B33B"/>
<path d="M16.2821 20.4058C16.5585 20.6806 16.9325 20.8348 17.3223 20.8348C17.7121 20.8348 18.086 20.6806 18.3625 20.4058L20.2216 18.5172L22.0659 20.3615C22.3482 20.6032 22.7112 20.7295 23.0826 20.7152C23.4539 20.7008 23.8062 20.5469 24.0689 20.2841C24.3317 20.0213 24.4857 19.6691 24.5 19.2978C24.5143 18.9264 24.388 18.5633 24.1463 18.2811L22.302 16.4367L24.1463 14.5924C24.388 14.3101 24.5143 13.9471 24.5 13.5757C24.4857 13.2044 24.3317 12.8521 24.0689 12.5894C23.8062 12.3266 23.4539 12.1726 23.0826 12.1583C22.7112 12.144 22.3482 12.2703 22.0659 12.512L20.2216 14.3858L18.3772 12.5415C18.095 12.2998 17.7319 12.1735 17.3605 12.1878C16.9892 12.2022 16.637 12.3561 16.3742 12.6189C16.1114 12.8816 15.9575 13.2339 15.9431 13.6052C15.9288 13.9766 16.0551 14.3397 16.2968 14.6219L18.1411 16.4662L16.2968 18.3106C16.1575 18.4468 16.0466 18.6092 15.9705 18.7885C15.8943 18.9677 15.8543 19.1603 15.853 19.3551C15.8516 19.5499 15.8888 19.743 15.9625 19.9233C16.0361 20.1037 16.1447 20.2676 16.2821 20.4058Z" fill="#09B33B"/>
</svg>
