<svg width="40" height="41" viewBox="0 0 40 41" fill="none" xmlns="http://www.w3.org/2000/svg">
<path fill-rule="evenodd" clip-rule="evenodd" d="M24.8101 6.74784C24.8101 5.94277 24.4901 5.17011 23.92 4.59999C23.3509 4.02986 22.5782 3.70986 21.7722 3.70986H3.03797C2.2319 3.70986 1.45924 4.02986 0.890124 4.59999C0.319998 5.17011 0 5.94277 0 6.74784V37.1276C0 37.9337 0.319998 38.7063 0.890124 39.2765C1.45924 39.8456 2.2319 40.1656 3.03797 40.1656H21.7722C22.5782 40.1656 23.3509 39.8456 23.92 39.2765C24.4901 38.7063 24.8101 37.9337 24.8101 37.1276V6.74784ZM22.7848 6.74784V37.1276C22.7848 37.3969 22.6785 37.6542 22.4881 37.8435C22.2987 38.0339 22.0405 38.1402 21.7722 38.1402H3.03797C2.76962 38.1402 2.51139 38.0339 2.32202 37.8435C2.13164 37.6542 2.02532 37.3969 2.02532 37.1276V6.74784C2.02532 6.47948 2.13164 6.22227 2.32202 6.03189C2.51139 5.84252 2.76962 5.73518 3.03797 5.73518H21.7722C22.0405 5.73518 22.2987 5.84252 22.4881 6.03189C22.6785 6.22227 22.7848 6.47948 22.7848 6.74784ZM8.20458 26.8987C7.99698 27.1063 7.88962 27.3939 7.90988 27.6866C7.93114 27.9802 8.07799 28.2496 8.31293 28.4248C9.4552 29.2795 10.8709 29.7858 12.4051 29.7858C13.9392 29.7858 15.356 29.2795 16.4972 28.4248C16.7322 28.2496 16.879 27.9802 16.9002 27.6866C16.9215 27.3939 16.8142 27.1063 16.6066 26.8987L13.121 23.4132C12.7261 23.0182 12.0841 23.0182 11.6891 23.4132L8.20458 26.8987ZM14.241 27.3969L12.4051 25.562L10.5691 27.3969C11.1352 27.6319 11.7549 27.7605 12.4051 27.7605C13.0552 27.7605 13.675 27.6319 14.241 27.3969ZM18.8922 17.8466C18.716 17.6106 18.4466 17.4638 18.1539 17.4435C17.8613 17.4223 17.5737 17.5296 17.3661 17.7372L14.1337 20.9686C13.7387 21.3645 13.7387 22.0056 14.1337 22.4005L17.5747 25.8415C17.7894 26.0572 18.0911 26.1635 18.3939 26.1332C18.6967 26.1018 18.9701 25.9357 19.1372 25.6805C19.843 24.6051 20.2532 23.319 20.2532 21.9377C20.2532 20.4045 19.7468 18.9878 18.8922 17.8466ZM7.44508 17.7372C7.23749 17.5296 6.94886 17.4223 6.6562 17.4435C6.36354 17.4638 6.0942 17.6106 5.918 17.8466C5.06332 18.9878 4.55696 20.4045 4.55696 21.9377C4.55696 23.319 4.96812 24.6051 5.67293 25.6805C5.84002 25.9357 6.11342 26.1018 6.4162 26.1332C6.71899 26.1635 7.02076 26.0572 7.23645 25.8415L10.6765 22.4005C11.0714 22.0056 11.0714 21.3645 10.6765 20.9686L7.44508 17.7372ZM6.94583 20.1028C6.71191 20.6678 6.58228 21.2886 6.58228 21.9377C6.58228 22.4491 6.66228 22.9412 6.81013 23.403L8.5286 21.6845L6.94583 20.1028ZM17.8643 20.1028L16.2825 21.6845L18 23.403C18.1479 22.9412 18.2278 22.4491 18.2278 21.9377C18.2278 21.2886 18.0993 20.6678 17.8643 20.1028ZM8.6623 15.2055C8.40812 15.3736 8.24203 15.6461 8.21063 15.9488C8.17924 16.2526 8.28658 16.5534 8.50227 16.7691L11.6891 19.9559C12.0841 20.3519 12.7261 20.3519 13.121 19.9559L16.3089 16.7691C16.5236 16.5534 16.6309 16.2526 16.5995 15.9488C16.5691 15.6461 16.4031 15.3736 16.1479 15.2055C15.0724 14.5007 13.7863 14.0896 12.4051 14.0896C11.0238 14.0896 9.73774 14.5007 8.6623 15.2055ZM13.8704 16.3428C13.4086 16.1949 12.9154 16.1149 12.4051 16.1149C11.8947 16.1149 11.4025 16.1949 10.9398 16.3428L12.4051 17.8081L13.8704 16.3428ZM28.8101 2.28606C33.8714 2.28606 37.9747 6.38937 37.9747 11.4506C37.9747 12.0096 38.4284 12.4633 38.9873 12.4633C39.5463 12.4633 40 12.0096 40 11.4506C40 5.27038 34.9904 0.260742 28.8101 0.260742C28.2512 0.260742 27.7975 0.714413 27.7975 1.2734C27.7975 1.83239 28.2512 2.28606 28.8101 2.28606ZM28.8101 7.37466C31.0613 7.37466 32.8861 9.1995 32.8861 11.4506C32.8861 12.0096 33.3398 12.4633 33.8987 12.4633C34.4577 12.4633 34.9114 12.0096 34.9114 11.4506C34.9114 8.08152 32.1793 5.34934 28.8101 5.34934C28.2512 5.34934 27.7975 5.80301 27.7975 6.362C27.7975 6.92099 28.2512 7.37466 28.8101 7.37466ZM30.082 11.2258C30.082 11.7767 29.6355 12.2233 29.0846 12.2233C28.5347 12.2233 28.0881 11.7767 28.0881 11.2258C28.0881 10.6749 28.5347 10.2293 29.0846 10.2293C29.6355 10.2293 30.082 10.6749 30.082 11.2258ZM8.35443 7.7605C8.35443 7.20151 7.90076 6.74784 7.34177 6.74784H4.3038C3.74481 6.74784 3.29114 7.20151 3.29114 7.7605V10.7985C3.29114 11.3585 3.74481 11.8111 4.3038 11.8111H7.34177C7.90076 11.8111 8.35443 11.3585 8.35443 10.7985V7.7605ZM21.519 7.7605C21.519 7.20151 21.0653 6.74784 20.5063 6.74784H15.443C14.8841 6.74784 14.4304 7.20151 14.4304 7.7605V10.7985C14.4304 11.3585 14.8841 11.8111 15.443 11.8111H20.5063C21.0653 11.8111 21.519 11.3585 21.519 10.7985V7.7605ZM5.31646 8.77315V9.78581H6.32911V8.77315H5.31646ZM16.4557 8.77315V9.78581H19.4937V8.77315H16.4557Z" fill="#09B33B"/>
</svg>
