<svg width="25" height="43" viewBox="0 0 25 43" fill="none" xmlns="http://www.w3.org/2000/svg">
<path opacity="0.4" d="M24.3212 20.036L5.38423 1.34577C4.94624 0.913144 4.36156 0.674805 3.73813 0.674805C3.11471 0.674805 2.53003 0.913144 2.09204 1.34577L0.697462 2.72186C-0.209999 3.61854 -0.209999 5.07589 0.697462 5.9712L16.5993 21.6661L0.679818 37.3784C0.241828 37.811 0 38.3878 0 39.0027C0 39.6184 0.241828 40.1951 0.679818 40.6281L2.0744 42.0038C2.51273 42.4365 3.09706 42.6748 3.72049 42.6748C4.34391 42.6748 4.92859 42.4365 5.36658 42.0038L24.3212 23.2966C24.7602 22.8626 25.0014 22.2831 25 21.6671C25.0014 21.0487 24.7602 20.4696 24.3212 20.036Z" fill="#000019"/>
</svg>
