<svg width="25" height="43" viewBox="0 0 25 43" fill="none" xmlns="http://www.w3.org/2000/svg">
<path opacity="0.4" d="M0.665136 23.4577L19.2166 42.0088C19.6457 42.4382 20.2184 42.6748 20.8292 42.6748C21.4399 42.6748 22.0127 42.4382 22.4418 42.0088L23.8079 40.643C24.6969 39.753 24.6969 38.3065 23.8079 37.4178L8.22983 21.8397L23.8252 6.2443C24.2543 5.81489 24.4912 5.24245 24.4912 4.63206C24.4912 4.02099 24.2543 3.44855 23.8252 3.0188L22.459 1.65329C22.0296 1.22388 21.4572 0.987316 20.8465 0.987316C20.2357 0.987316 19.663 1.22388 19.2339 1.65329L0.665136 20.2214C0.235046 20.6521 -0.00118065 21.2273 0.000175476 21.8387C-0.00118065 22.4525 0.235046 23.0273 0.665136 23.4577Z" fill="#000019"/>
</svg>
