<svg width="40" height="40" viewBox="0 0 40 40" fill="none" xmlns="http://www.w3.org/2000/svg">
<path d="M29.9546 26.5148C29.5838 26.1427 29.1432 25.8475 28.6581 25.646C28.1729 25.4446 27.6528 25.3409 27.1275 25.3409C26.6022 25.3409 26.0821 25.4446 25.597 25.646C25.1118 25.8475 24.6712 26.1427 24.3004 26.5148L22.3714 28.4439C20.1994 27.0654 18.187 25.4502 16.3713 23.6278C14.5528 21.8086 12.9379 19.7967 11.5553 17.6278L13.4843 15.6987C13.8564 15.3279 14.1516 14.8873 14.3531 14.4022C14.5545 13.917 14.6582 13.3969 14.6582 12.8716C14.6582 12.3463 14.5545 11.8262 14.3531 11.341C14.1516 10.8559 13.8564 10.4153 13.4843 10.0445L9.71932 6.2928C9.35376 5.91949 8.91688 5.62347 8.43465 5.42235C7.95241 5.22123 7.43467 5.11911 6.91218 5.12206C6.38599 5.12077 5.86473 5.22354 5.37841 5.42446C4.89208 5.62539 4.45029 5.92049 4.07844 6.2928L2.26911 8.08884C1.40671 9.01608 0.763065 10.1248 0.385491 11.3335C0.0079168 12.5422 -0.0939894 13.8201 0.0872634 15.0734C0.512989 20.0624 3.78576 26.0625 8.82795 31.118C13.8701 36.1735 19.9367 39.4329 24.9257 39.9119C25.298 39.9318 25.671 39.9318 26.0432 39.9119C27.1172 39.9569 28.1893 39.7872 29.1968 39.4125C30.2042 39.0379 31.1268 38.4659 31.9103 37.73L33.7063 35.9207C34.0786 35.5488 34.3737 35.107 34.5747 34.6207C34.7756 34.1344 34.8784 33.6131 34.8771 33.0869C34.88 32.5645 34.7779 32.0467 34.5768 31.5645C34.3756 31.0822 34.0796 30.6454 33.7063 30.2798L29.9546 26.5148ZM31.8305 34.0448L30.0211 35.8409C29.3521 36.3984 28.5712 36.8057 27.7311 37.0353C26.891 37.2648 26.0114 37.3112 25.1519 37.1712C20.8281 36.7987 15.3203 33.7388 10.7703 29.1889C6.22038 24.6389 3.16047 19.171 2.74805 14.8472C2.60458 13.9877 2.64923 13.1072 2.87891 12.2666C3.10859 11.426 3.51784 10.6452 4.07844 9.97799L5.9543 8.16866C6.07861 8.04536 6.22604 7.9478 6.38813 7.8816C6.55023 7.81539 6.72379 7.78183 6.89888 7.78285C7.07397 7.78183 7.24754 7.81539 7.40963 7.8816C7.57172 7.9478 7.71915 8.04536 7.84346 8.16866L11.6085 11.9736C11.8563 12.2229 11.9953 12.56 11.9953 12.9115C11.9953 13.263 11.8563 13.6002 11.6085 13.8494L8.94769 16.5102C8.73948 16.7174 8.60569 16.9877 8.56718 17.2789C8.52868 17.5701 8.58762 17.8658 8.73482 18.12C10.3278 20.8319 12.264 23.3271 14.4954 25.5436C16.712 27.775 19.2071 29.7112 21.919 31.3042C22.1732 31.4514 22.469 31.5104 22.7602 31.4719C23.0514 31.4333 23.3216 31.2996 23.5288 31.0914L26.1896 28.4306C26.4389 28.1828 26.776 28.0437 27.1275 28.0437C27.479 28.0437 27.8162 28.1828 28.0654 28.4306L31.8305 32.1956C31.9538 32.3199 32.0513 32.4673 32.1175 32.6294C32.1837 32.7915 32.2173 32.9651 32.2163 33.1402C32.2079 33.4799 32.0699 33.8036 31.8305 34.0448Z" fill="#0090E7"/>
<path d="M34.1453 5.84047C32.2964 3.98453 30.0985 2.51294 27.6781 1.51055C25.2577 0.508151 22.6629 -0.00521732 20.0432 3.99737e-05C19.6903 3.99737e-05 19.3519 0.140206 19.1024 0.389703C18.8529 0.639201 18.7128 0.977592 18.7128 1.33043C18.7128 1.68328 18.8529 2.02167 19.1024 2.27116C19.3519 2.52066 19.6903 2.66083 20.0432 2.66083C22.3268 2.66075 24.5878 3.1129 26.6957 3.9912C28.8036 4.8695 30.7168 6.15655 32.3247 7.77808C33.9326 9.39962 35.2035 11.3235 36.064 13.4388C36.9245 15.554 37.3576 17.8188 37.3383 20.1023C37.3383 20.4551 37.4785 20.7935 37.728 21.043C37.9775 21.2925 38.3158 21.4327 38.6687 21.4327C39.0215 21.4327 39.3599 21.2925 39.6094 21.043C39.8589 20.7935 39.9991 20.4551 39.9991 20.1023C40.0246 17.4547 39.5197 14.8288 38.5144 12.3794C37.509 9.93004 36.0235 7.7067 34.1453 5.84047Z" fill="#0090E7"/>
<path d="M26.5754 13.4503C27.3304 14.2008 27.9277 15.0947 28.3321 16.0794C28.7365 17.0641 28.9399 18.1198 28.9302 19.1843C28.9302 19.5372 29.0704 19.8756 29.3199 20.1251C29.5694 20.3746 29.9078 20.5147 30.2606 20.5147C30.6134 20.5147 30.9518 20.3746 31.2013 20.1251C31.4508 19.8756 31.591 19.5372 31.591 19.1843C31.6086 17.7755 31.3463 16.3772 30.8193 15.0705C30.2924 13.7638 29.5112 12.5748 28.5211 11.5723C27.531 10.5699 26.3518 9.774 25.0518 9.23083C23.7517 8.68766 22.3568 8.40802 20.9478 8.40813C20.595 8.40813 20.2566 8.5483 20.0071 8.79779C19.7576 9.04729 19.6174 9.38568 19.6174 9.73852C19.6174 10.0914 19.7576 10.4298 20.0071 10.6793C20.2566 10.9288 20.595 11.0689 20.9478 11.0689C21.9963 11.0768 23.0329 11.2912 23.9985 11.6998C24.9641 12.1084 25.8397 12.7032 26.5754 13.4503Z" fill="#0090E7"/>
</svg>
