<svg width="46" height="54" viewBox="0 0 46 54" fill="none" xmlns="http://www.w3.org/2000/svg">
<path d="M28.765 31.4406C28.7333 31.5588 28.7186 31.6817 28.7129 31.8046C28.7084 31.9194 28.7095 32.006 28.7073 32.1078L28.6982 32.6977L28.6801 33.8776L28.6076 38.5959L28.4682 53.8814H25.9948V38.3477C25.9948 33.8355 24.8062 29.425 22.573 25.5916L22.905 25.8269L23.4681 26.1734C23.5621 26.2296 23.6539 26.2916 23.7513 26.3431L24.0425 26.4976C24.8107 26.926 25.6288 27.2479 26.4548 27.5241L27.0813 27.7079C27.2887 27.7746 27.5051 27.8074 27.7159 27.8589C28.1373 27.9654 28.569 28.0169 28.9962 28.0825C29.2103 28.1164 29.4267 28.1223 29.642 28.1433C29.8573 28.1574 30.0726 28.1855 30.289 28.182C30.7207 28.1855 31.1524 28.1995 31.5818 28.1679C33.3029 28.0696 34.9979 27.6447 36.5626 26.933C34.9673 27.5686 33.2689 27.9045 31.5739 27.9198C31.1501 27.9303 30.7263 27.8952 30.3049 27.8718C30.093 27.8659 29.8845 27.8285 29.6749 27.8039C29.4653 27.7735 29.2545 27.7582 29.0483 27.7149C28.6347 27.6295 28.2178 27.5604 27.8133 27.4363C27.6105 27.3767 27.4043 27.3345 27.206 27.2608L26.6077 27.0536C25.8225 26.7481 25.0498 26.4016 24.3326 25.9545L24.0607 25.7941C23.97 25.7391 23.885 25.6759 23.7978 25.6174L23.2755 25.2604L22.7758 24.8706C22.6931 24.8051 22.6081 24.743 22.5277 24.674L22.2908 24.4633C21.6858 23.9483 21.1465 23.3595 20.64 22.7473C20.4009 22.4524 20.1732 22.1492 19.9568 21.8355C19.9443 21.818 19.9319 21.8004 19.9205 21.7817C19.8367 21.6588 19.7551 21.5335 19.6747 21.4071C19.6248 21.3275 19.5738 21.2479 19.5251 21.1683C19.4526 21.0501 19.3801 20.9307 19.311 20.8102C19.294 20.7809 19.2758 20.7505 19.2588 20.7212C18.0148 18.5265 17.2998 15.9737 17.2998 13.2476C17.2998 7.67016 20.2842 2.81376 24.6918 0.284319V13.5379L31.6464 17.6861L38.601 13.5379V0.280807C43.0085 2.81025 45.9929 7.66547 45.9929 13.2441C45.9929 16.8902 44.716 20.2273 42.6017 22.8094H42.6051C42.6051 22.8094 42.5349 22.8983 42.4114 23.0599C39.0893 27.4141 37.2968 32.8031 37.2968 38.3466V53.8802H29.6148L29.4755 38.5947L29.403 33.8764L29.3848 32.6966L29.3758 32.1066C29.3758 32.0118 29.3712 31.9018 29.3724 31.8199C29.3724 31.7461 29.3792 31.6724 29.3961 31.601C29.4562 31.313 29.65 31.0532 29.9106 30.9197C30.0397 30.8519 30.1836 30.8132 30.3309 30.8074L30.8986 30.7968L32.0407 30.7781L32.6117 30.7688C32.7024 30.7688 32.8111 30.7629 32.8882 30.7664C32.9641 30.7676 33.0411 30.7758 33.1159 30.7957C33.415 30.8659 33.6802 31.086 33.8161 31.3762C33.8853 31.5202 33.9238 31.6806 33.9272 31.8444L33.9362 32.4344L34.0088 37.1526L34.1527 52.7624L34.2966 37.1526L34.3691 32.4344L34.3781 31.8444C34.3815 31.615 34.3339 31.3821 34.241 31.1714C34.0575 30.7465 33.6847 30.4129 33.244 30.2912C33.1352 30.2584 33.0208 30.2409 32.9074 30.2362C32.7941 30.2292 32.7126 30.2315 32.6129 30.2292L32.0418 30.2198L30.8997 30.2011L30.3252 30.1929C30.0918 30.1929 29.8573 30.2467 29.6443 30.3497C29.216 30.5534 28.8851 30.9619 28.7662 31.4406H28.765Z" fill="#0090E7"/>
<path d="M22.4239 48.7112C19.5598 48.1388 16.8956 47.0104 14.5504 45.4419L9.95578 48.1552L5.71639 43.9085L8.42502 39.306C6.85921 36.9556 5.73275 34.2868 5.16135 31.419L0 30.0835V24.0787L5.16135 22.7431C5.73275 19.8742 6.85921 17.2054 8.42502 14.8561L5.71639 10.2536L9.95578 6.00697L14.5504 8.72025C15.1896 8.29418 15.851 7.89854 16.5345 7.54036C15.8498 9.33477 15.4829 11.2626 15.4829 13.2431C15.4829 13.8764 15.5203 14.5061 15.5962 15.13C12.4097 18.1149 10.4185 22.3662 10.4185 27.0799C10.4185 35.3356 16.5205 42.1621 24.4501 43.2835V53.8814H23.7583L22.425 48.7112H22.4239Z" fill="#09B33B"/>
<path d="M13.0225 27.0799C13.0225 23.6924 14.2447 20.5928 16.2698 18.1991C16.7348 21.5023 18.3813 23.4993 19.8104 24.939C20.806 25.9421 21.6496 27.0904 22.2456 28.3733C22.5447 29.0171 22.8146 29.6738 23.0542 30.3421C23.143 30.5903 23.2213 30.8431 23.2902 31.0983C23.9668 33.6372 24.4517 36.9322 24.4517 40.6462C17.9641 39.5483 13.0236 33.8947 13.0236 27.0811L13.0225 27.0799Z" fill="#09B33B"/>
</svg>
