<svg width="11" height="10" viewBox="0 0 11 10" fill="none" xmlns="http://www.w3.org/2000/svg">
<path d="M8.71233 1.21261C8.88727 1.0392 9.12343 0.941601 9.36975 0.940922C9.61607 0.940242 9.85276 1.03653 10.0286 1.20897C10.2045 1.38142 10.3055 1.61616 10.3097 1.86244C10.3139 2.10873 10.221 2.34677 10.0511 2.52511L5.06108 8.76261C4.97532 8.85498 4.87181 8.92911 4.75675 8.98057C4.64168 9.03202 4.51742 9.05974 4.3914 9.06208C4.26537 9.06441 4.14017 9.04131 4.02328 8.99415C3.90639 8.94699 3.8002 8.87674 3.71108 8.78761L0.404831 5.48011C0.312722 5.39428 0.238845 5.29078 0.187605 5.17578C0.136365 5.06078 0.108812 4.93664 0.106591 4.81076C0.10437 4.68488 0.127526 4.55984 0.174678 4.44311C0.221829 4.32637 0.29201 4.22033 0.381033 4.13131C0.470057 4.04229 0.576099 3.9721 0.692834 3.92495C0.809569 3.8778 0.934606 3.85465 1.06048 3.85687C1.18636 3.85909 1.3105 3.88664 1.4255 3.93788C1.5405 3.98912 1.644 4.063 1.72983 4.15511L4.34733 6.77136L8.68858 1.24011C8.69633 1.23042 8.70343 1.22124 8.71233 1.21261Z" fill="#0090E7"/>
</svg>
