<svg width="11" height="9" viewBox="0 0 11 9" fill="none" xmlns="http://www.w3.org/2000/svg">
<path d="M8.71233 0.887411C8.88727 0.714 9.12343 0.616406 9.36975 0.615726C9.61607 0.615047 9.85276 0.711337 10.0286 0.883779C10.2045 1.05622 10.3055 1.29096 10.3097 1.53725C10.3139 1.78353 10.221 2.02157 10.0511 2.19991L5.06108 8.43741C4.97532 8.52979 4.87181 8.60391 4.75675 8.65537C4.64168 8.70683 4.51742 8.73455 4.3914 8.73688C4.26537 8.73922 4.14017 8.71611 4.02328 8.66895C3.90639 8.62179 3.8002 8.55155 3.71108 8.46241L0.404831 5.15491C0.312722 5.06908 0.238845 4.96558 0.187605 4.85058C0.136365 4.73558 0.108812 4.61144 0.106591 4.48556C0.10437 4.35969 0.127526 4.23465 0.174678 4.11791C0.221829 4.00118 0.29201 3.89514 0.381033 3.80611C0.470057 3.71709 0.576099 3.64691 0.692834 3.59976C0.809569 3.55261 0.934606 3.52945 1.06048 3.53167C1.18636 3.53389 1.3105 3.56144 1.4255 3.61268C1.5405 3.66392 1.644 3.7378 1.72983 3.82991L4.34733 6.44616L8.68858 0.914911C8.69633 0.905226 8.70343 0.896041 8.71233 0.887411Z" fill="#FDFFFE"/>
</svg>
